# xmcd
#
# Track frame offsets:
#	150
#	17748
#	36406
#	56802
#	74979
#	102872
#	118083
#	131209
#	153260
#	169974
#	189389
#	213086
#
# Disc length: 3058 seconds
#
# Revision: 1
# Processed by: cddbd v1.5.2PL0 Copyright (c) Steve Scherf et al.
# Submitted via: EZCDAudioConverter 8.1.0.1
#
DISCID=b40bf00c
DTITLE=Sam Frazier - Half a Million Years
DYEAR=2004
DGENRE=R&B
TTITLE0=Shadow
TTITLE1=Ghost Town
TTITLE2=Ringing In Your Ear
TTITLE3=Fall In Love With You
TTITLE4=Terminal Moon
TTITLE5=Toss The Bouquet
TTITLE6=Do-Si-Do
TTITLE7=She Don't Pick Up The Phone
TTITLE8=Too Tight To Tangle
TTITLE9=Covered Dish
TTITLE10=Half a Million Years
TTITLE11=Genius
EXTD=
EXTT0=
EXTT1=
EXTT2=
EXTT3=
EXTT4=
EXTT5=
EXTT6=
EXTT7=
EXTT8=
EXTT9=
EXTT10=
EXTT11=
PLAYORDER=
